<svg xmlns="http://www.w3.org/2000/svg" width="24.734" height="24" viewBox="0 0 24.734 24">
  <path id="person_FILL1_wght400_GRAD0_opsz48_1_" data-name="person_FILL1_wght400_GRAD0_opsz48 (1)" d="M20.367,20.544a5.56,5.56,0,0,1-5.8-5.8,5.56,5.56,0,0,1,5.8-5.8,5.56,5.56,0,0,1,5.8,5.8,5.56,5.56,0,0,1-5.8,5.8ZM8,32.95V29.317a4.253,4.253,0,0,1,.734-2.512,4.714,4.714,0,0,1,1.894-1.585,29.049,29.049,0,0,1,4.966-1.739,20.075,20.075,0,0,1,4.773-.58,19.231,19.231,0,0,1,4.754.6,32.922,32.922,0,0,1,4.947,1.72A4.66,4.66,0,0,1,32,26.805a4.253,4.253,0,0,1,.734,2.512V32.95Z" transform="translate(-8 -8.95)" fill="#f8ff30"/>
</svg>
